<svg width="24" height="24" viewBox="0 0 24 24" fill="none" xmlns="http://www.w3.org/2000/svg">
<g id="eos-icons:patterns-outlined">
<path id="Vector" d="M20.98 9.19309V6.82209C21.4602 6.65777 21.8907 6.37399 22.231 5.99747C22.5713 5.62095 22.8102 5.16405 22.9253 4.66975C23.0404 4.17546 23.0278 3.66001 22.8889 3.17189C22.7499 2.68377 22.489 2.23903 22.1308 1.8795C21.7726 1.51997 21.3288 1.25747 20.8412 1.11669C20.3536 0.975903 19.8382 0.961466 19.3435 1.07473C18.8488 1.188 18.391 1.42525 18.0132 1.76417C17.6355 2.10308 17.3501 2.53252 17.184 3.01209H14.816C14.649 2.53379 14.3632 2.10574 13.9855 1.76807C13.6078 1.4304 13.1506 1.19416 12.6566 1.0815C12.1627 0.968846 11.6482 0.98346 11.1615 1.12398C10.6747 1.26449 10.2316 1.5263 9.87371 1.88487C9.51579 2.24344 9.2548 2.68702 9.11518 3.17403C8.97555 3.66104 8.96189 4.17553 9.07545 4.66927C9.18901 5.16301 9.42609 5.61982 9.76446 5.99689C10.1028 6.37396 10.5314 6.65893 11.01 6.82509V9.19509C10.4236 9.3957 9.91457 9.77463 9.55417 10.2788C9.19376 10.783 9 11.3873 9 12.0071C9 12.6269 9.19376 13.2311 9.55417 13.7353C9.91457 14.2396 10.4236 14.6185 11.01 14.8191V17.1891C10.5884 17.3367 10.2053 17.5771 9.88898 17.8924C9.57262 18.2077 9.33102 18.59 9.182 19.0111H6.818C6.66952 18.5918 6.42923 18.2109 6.11469 17.8964C5.80015 17.5819 5.41931 17.3416 5 17.1931V14.8231C5.67055 14.5894 6.23686 14.1262 6.59877 13.5153C6.96069 12.9043 7.09488 12.1851 6.97763 11.4848C6.86037 10.7844 6.49922 10.1481 5.95804 9.6884C5.41687 9.22867 4.73055 8.97514 4.02047 8.97266C3.31039 8.97017 2.62231 9.21889 2.07793 9.67482C1.53355 10.1307 1.16795 10.7645 1.0458 11.464C0.92364 12.1635 1.0528 12.8837 1.41043 13.4971C1.76806 14.1106 2.33111 14.5778 3 14.8161V17.1931C2.52357 17.3613 2.09751 17.6474 1.76163 18.0249C1.42574 18.4023 1.19098 18.8587 1.07926 19.3514C0.967532 19.8442 0.982493 20.3572 1.12274 20.8426C1.26299 21.328 1.52396 21.7699 1.88127 22.1271C2.23858 22.4843 2.68058 22.7452 3.16601 22.8853C3.65144 23.0254 4.16446 23.0403 4.65717 22.9284C5.14988 22.8166 5.60621 22.5817 5.98356 22.2457C6.3609 21.9097 6.64696 21.4836 6.815 21.0071H9.185C9.35239 21.4841 9.63791 21.9109 10.0149 22.2477C10.3919 22.5845 10.8481 22.8203 11.3409 22.933C11.8337 23.0458 12.347 23.0318 12.8329 22.8925C13.3189 22.7532 13.7616 22.493 14.1197 22.1362C14.4779 21.7795 14.7398 21.3378 14.8811 20.8524C15.0223 20.367 15.0383 19.8537 14.9275 19.3605C14.8166 18.8673 14.5827 18.4102 14.2473 18.0319C13.912 17.6535 13.4863 17.3664 13.01 17.1971V14.8191C13.5914 14.6136 14.0948 14.2328 14.4509 13.7293C14.8069 13.2258 14.9981 12.6243 14.9981 12.0076C14.9981 11.3909 14.8069 10.7894 14.4509 10.2859C14.0948 9.78237 13.5914 9.40163 13.01 9.19609V6.81909C13.4262 6.66988 13.8041 6.43011 14.1165 6.1171C14.4288 5.8041 14.6677 5.42565 14.816 5.00909H17.184C17.3289 5.42629 17.5654 5.80572 17.8762 6.11947C18.187 6.43322 18.5642 6.67331 18.98 6.82209V9.19909C18.4006 9.40361 17.899 9.78289 17.5444 10.2846C17.1897 10.7863 16.9995 11.3857 17 12.0001C16.9948 12.5522 17.142 13.095 17.4255 13.5687C17.7089 14.0425 18.1176 14.4289 18.6066 14.6853C19.0955 14.9417 19.6457 15.0582 20.1966 15.022C20.7475 14.9858 21.2778 14.7983 21.7289 14.4801C22.1801 14.1619 22.5347 13.7253 22.7537 13.2185C22.9727 12.7117 23.0477 12.1543 22.9702 11.6077C22.8928 11.0611 22.666 10.5464 22.3149 10.1204C21.9637 9.69433 21.5018 9.37347 20.98 9.19309ZM4 21.0001C3.80222 21.0001 3.60888 20.9414 3.44443 20.8316C3.27998 20.7217 3.15181 20.5655 3.07612 20.3828C3.00044 20.2 2.98063 19.999 3.01922 19.805C3.0578 19.611 3.15304 19.4328 3.2929 19.293C3.43275 19.1531 3.61093 19.0579 3.80491 19.0193C3.99889 18.9807 4.19996 19.0005 4.38269 19.0762C4.56541 19.1519 4.72159 19.2801 4.83147 19.4445C4.94135 19.609 5 19.8023 5 20.0001C5 20.2653 4.89465 20.5197 4.70711 20.7072C4.51957 20.8947 4.26522 21.0001 4 21.0001ZM4 13.0001C3.80222 13.0001 3.60888 12.9414 3.44443 12.8316C3.27998 12.7217 3.15181 12.5655 3.07612 12.3828C3.00044 12.2 2.98063 11.999 3.01922 11.805C3.0578 11.611 3.15304 11.4328 3.2929 11.293C3.43275 11.1531 3.61093 11.0579 3.80491 11.0193C3.99889 10.9807 4.19996 11.0005 4.38269 11.0762C4.56541 11.1519 4.72159 11.2801 4.83147 11.4445C4.94135 11.609 5 11.8023 5 12.0001C5 12.2653 4.89465 12.5197 4.70711 12.7072C4.51957 12.8947 4.26522 13.0001 4 13.0001ZM12 21.0001C11.8022 21.0001 11.6089 20.9414 11.4444 20.8316C11.28 20.7217 11.1518 20.5655 11.0761 20.3828C11.0004 20.2 10.9806 19.999 11.0192 19.805C11.0578 19.611 11.153 19.4328 11.2929 19.293C11.4327 19.1531 11.6109 19.0579 11.8049 19.0193C11.9989 18.9807 12.2 19.0005 12.3827 19.0762C12.5654 19.1519 12.7216 19.2801 12.8315 19.4445C12.9414 19.609 13 19.8023 13 20.0001C13 20.2653 12.8946 20.5197 12.7071 20.7072C12.5196 20.8947 12.2652 21.0001 12 21.0001ZM12 13.0001C11.731 12.9967 11.474 12.8886 11.2835 12.6987C11.093 12.5088 10.9841 12.252 10.98 11.9831C10.9853 11.7176 11.0956 11.465 11.2868 11.2807C11.478 11.0965 11.7345 10.9955 12 11.0001C12.1294 10.9986 12.2577 11.023 12.3775 11.072C12.4972 11.1209 12.606 11.1933 12.6973 11.2849C12.7887 11.3765 12.8607 11.4855 12.9093 11.6054C12.9578 11.7253 12.9819 11.8537 12.98 11.9831C12.9848 12.2479 12.8843 12.5038 12.7005 12.6945C12.5168 12.8852 12.2648 12.9951 12 13.0001ZM11.98 4.99409C11.7207 4.98588 11.4747 4.87709 11.2941 4.69073C11.1136 4.50437 11.0126 4.25507 11.0126 3.99559C11.0126 3.73611 11.1136 3.48681 11.2941 3.30046C11.4747 3.1141 11.7207 3.0053 11.98 2.99709C12.1138 2.99286 12.2471 3.01555 12.3719 3.06382C12.4967 3.1121 12.6106 3.18497 12.7067 3.27811C12.8029 3.37124 12.8793 3.48275 12.9315 3.606C12.9837 3.72926 13.0106 3.86174 13.0106 3.99559C13.0106 4.12944 12.9837 4.26193 12.9315 4.38518C12.8793 4.50843 12.8029 4.61994 12.7067 4.71308C12.6106 4.80622 12.4967 4.87909 12.3719 4.92736C12.2471 4.97563 12.1138 4.99833 11.98 4.99409ZM20 12.9801C19.8698 12.9822 19.7404 12.9585 19.6195 12.9102C19.4985 12.862 19.3883 12.7902 19.2953 12.699C19.2022 12.6078 19.1282 12.4991 19.0776 12.3792C19.0269 12.2592 19.0005 12.1303 19 12.0001C19.0047 11.7329 19.1143 11.4783 19.3052 11.2912C19.496 11.1041 19.7528 10.9995 20.02 11.0001C20.2827 11.0027 20.5336 11.1096 20.7175 11.2973C20.9013 11.4849 21.0032 11.7379 21.0005 12.0006C20.9979 12.2633 20.891 12.5142 20.7033 12.6981C20.5157 12.8819 20.2627 12.9837 20 12.9811V12.9801ZM20 5.00009C19.8022 5.00009 19.6089 4.94144 19.4444 4.83156C19.28 4.72168 19.1518 4.5655 19.0761 4.38278C19.0004 4.20005 18.9806 3.99898 19.0192 3.805C19.0578 3.61102 19.153 3.43284 19.2929 3.29298C19.4327 3.15313 19.6109 3.05789 19.8049 3.01931C19.9989 2.98072 20.2 3.00052 20.3827 3.07621C20.5654 3.1519 20.7216 3.28007 20.8315 3.44452C20.9414 3.60897 21 3.80231 21 4.00009C21 4.26531 20.8946 4.51966 20.7071 4.7072C20.5196 4.89473 20.2652 5.00009 20 5.00009Z" fill="black"/>
<path id="Vector_2" d="M20 17C19.4067 17 18.8266 17.1759 18.3333 17.5056C17.8399 17.8352 17.4554 18.3038 17.2284 18.8519C17.0013 19.4001 16.9419 20.0033 17.0576 20.5853C17.1734 21.1672 17.4591 21.7018 17.8787 22.1213C18.2982 22.5409 18.8328 22.8266 19.4147 22.9424C19.9967 23.0581 20.5999 22.9987 21.1481 22.7716C21.6962 22.5446 22.1648 22.1601 22.4944 21.6667C22.8241 21.1734 23 20.5933 23 20C23 19.2044 22.6839 18.4413 22.1213 17.8787C21.5587 17.3161 20.7957 17 20 17ZM20 21C19.8022 21 19.6089 20.9414 19.4444 20.8315C19.28 20.7216 19.1518 20.5654 19.0761 20.3827C19.0004 20.2 18.9806 19.9989 19.0192 19.8049C19.0578 19.6109 19.153 19.4327 19.2929 19.2929C19.4327 19.153 19.6109 19.0578 19.8049 19.0192C19.9989 18.9806 20.2 19.0004 20.3827 19.0761C20.5654 19.1518 20.7216 19.28 20.8315 19.4444C20.9414 19.6089 21 19.8022 21 20C21 20.2652 20.8946 20.5196 20.7071 20.7071C20.5196 20.8946 20.2652 21 20 21Z" fill="black"/>
<path id="Vector_3" d="M4 1C3.40666 1 2.82664 1.17595 2.33329 1.50559C1.83994 1.83524 1.45543 2.30377 1.22836 2.85195C1.0013 3.40013 0.94189 4.00333 1.05765 4.58527C1.1734 5.16721 1.45912 5.70176 1.87868 6.12132C2.29824 6.54088 2.83279 6.8266 3.41473 6.94236C3.99667 7.05811 4.59987 6.9987 5.14805 6.77164C5.69623 6.54458 6.16477 6.16006 6.49441 5.66671C6.82405 5.17336 7 4.59334 7 4C7 3.20435 6.68393 2.44129 6.12132 1.87868C5.55871 1.31607 4.79565 1 4 1ZM4 5C3.80222 5 3.60888 4.94135 3.44443 4.83147C3.27998 4.72159 3.15181 4.56541 3.07612 4.38268C3.00043 4.19996 2.98063 3.99889 3.01922 3.80491C3.0578 3.61093 3.15304 3.43275 3.29289 3.29289C3.43275 3.15304 3.61093 3.0578 3.80491 3.01921C3.99889 2.98063 4.19996 3.00043 4.38268 3.07612C4.56541 3.15181 4.72159 3.27998 4.83147 3.44443C4.94135 3.60888 5 3.80222 5 4C5 4.26522 4.89464 4.51957 4.70711 4.70711C4.51957 4.89464 4.26522 5 4 5Z" fill="black"/>
</g>
</svg>
